<svg version="1.1" baseProfile="full" width="752" height="752" xmlns="http://www.w3.org/2000/svg">
<path d="M 666 376 L 651.806389726 465.614928369 L 718.380345866 487.246117975 L 687.769145362 556.0 L 627.147367097 521.0 L 570.047875844 591.511999388 L 616.887018289 643.532137172 L 556.0 687.769145362 L 521.0 627.147367097 L 436.294390337 659.662804213 L 450.848208694 728.133136264 L 376.0 736.0 L 376.0 666.0 L 286.385071631 651.806389726 L 264.753882025 718.380345866 L 196.0 687.769145362 L 231.0 627.147367097 L 160.488000612 570.047875844 L 108.467862828 616.887018289 L 64.2308546376 556.0 L 124.852632903 521.0 L 92.3371957872 436.294390337 L 23.8668637358 450.848208694 L 16.0 376.0 L 86.0 376.0 L 100.193610274 286.385071631 L 33.6196541337 264.753882025 L 64.2308546376 196.0 L 124.852632903 231.0 L 181.952124156 160.488000612 L 135.112981711 108.467862828 L 196.0 64.2308546376 L 231.0 124.852632903 L 315.705609663 92.3371957872 L 301.151791306 23.8668637358 L 376.0 16.0 L 376.0 86.0 L 465.614928369 100.193610274 L 487.246117975 33.6196541337 L 556.0 64.2308546376 L 521.0 124.852632903 L 591.511999388 181.952124156 L 643.532137172 135.112981711 L 687.769145362 196.0 L 627.147367097 231.0 L 659.662804213 315.705609663 L 728.133136264 301.151791306 L 736.0 376.0 L 666.0 376.0 Z" style="fill:#808080; stroke:#000000; stroke-width:10"/>
</svg>
