<svg version="1.1" baseProfile="full" width="992" height="992" xmlns="http://www.w3.org/2000/svg">
<path d="M 906 496 L 894.671667363 591.712599181 L 962.737561791 608.053774651 L 939.462175605 679.688047535 L 874.79060833 652.90020727 L 827.696967694 736.99195344 L 884.3281573 778.1369211 L 835.41125497 835.41125497 L 785.913780286 785.913780286 L 710.224411534 845.582467385 L 746.799311064 905.26727889 L 679.688047535 939.462175605 L 652.90020727 874.79060833 L 560.138130666 900.952219644 L 571.088543219 970.090403486 L 496.0 976.0 L 496.0 906.0 L 400.287400819 894.671667363 L 383.946225349 962.737561791 L 312.311952465 939.462175605 L 339.09979273 874.79060833 L 255.00804656 827.696967694 L 213.8630789 884.3281573 L 156.58874503 835.41125497 L 206.086219714 785.913780286 L 146.417532615 710.224411534 L 86.73272111 746.799311064 L 52.5378243946 679.688047535 L 117.20939167 652.90020727 L 91.047780356 560.138130666 L 21.9095965143 571.088543219 L 16.0 496.0 L 86.0 496.0 L 97.328332637 400.287400819 L 29.2624382091 383.946225349 L 52.5378243946 312.311952465 L 117.20939167 339.09979273 L 164.303032306 255.00804656 L 107.6718427 213.8630789 L 156.58874503 156.58874503 L 206.086219714 206.086219714 L 281.775588466 146.417532615 L 245.200688936 86.73272111 L 312.311952465 52.5378243946 L 339.09979273 117.20939167 L 431.861869334 91.047780356 L 420.911456781 21.9095965143 L 496.0 16.0 L 496.0 86.0 L 591.712599181 97.328332637 L 608.053774651 29.2624382091 L 679.688047535 52.5378243946 L 652.90020727 117.20939167 L 736.99195344 164.303032306 L 778.1369211 107.6718427 L 835.41125497 156.58874503 L 785.913780286 206.086219714 L 845.582467385 281.775588466 L 905.26727889 245.200688936 L 939.462175605 312.311952465 L 874.79060833 339.09979273 L 900.952219644 431.861869334 L 970.090403486 420.911456781 L 976.0 496.0 L 906.0 496.0 Z" style="fill:#808080; stroke:#000000; stroke-width:10"/>
</svg>
