<svg version="1.1" baseProfile="full" width="1232" height="1232" xmlns="http://www.w3.org/2000/svg">
<path d="M 1146 616 L 1136.61224289 715.31209673 L 1205.37235044 728.428788751 L 1186.63390978 801.410196625 L 1120.05995364 779.779007019 L 1080.44254042 871.329447274 L 1141.78400803 905.052204461 L 1101.41019662 968.671151375 L 1044.77900702 927.526183715 L 978.809966142 1002.35337253 L 1026.72826356 1053.38117645 L 968.671151375 1101.41019662 L 927.526183715 1044.77900702 L 841.663024529 1095.55833781 L 871.467574939 1158.89623148 L 801.410196625 1186.63390978 L 779.779007019 1120.05995364 L 682.426613789 1141.8207917 L 691.199940139 1211.26882079 L 616.0 1216.0 L 616.0 1146.0 L 516.68790327 1136.61224289 L 503.571211249 1205.37235044 L 430.589803375 1186.63390978 L 452.220992981 1120.05995364 L 360.670552726 1080.44254042 L 326.947795539 1141.78400803 L 263.328848625 1101.41019662 L 304.473816285 1044.77900702 L 229.646627467 978.809966142 L 178.618823547 1026.72826356 L 130.589803375 968.671151375 L 187.220992981 927.526183715 L 136.441662193 841.663024529 L 73.1037685204 871.467574939 L 45.3660902229 801.410196625 L 111.940046364 779.779007019 L 90.1792083033 682.426613789 L 20.7311792113 691.199940139 L 16.0 616.0 L 86.0 616.0 L 95.3877571138 516.68790327 L 26.6276495628 503.571211249 L 45.3660902229 430.589803375 L 111.940046364 452.220992981 L 151.557459577 360.670552726 L 90.2159919737 326.947795539 L 130.589803375 263.328848625 L 187.220992981 304.473816285 L 253.190033858 229.646627467 L 205.271736443 178.618823547 L 263.328848625 130.589803375 L 304.473816285 187.220992981 L 390.336975471 136.441662193 L 360.532425061 73.1037685204 L 430.589803375 45.3660902229 L 452.220992981 111.940046364 L 549.573386211 90.1792083033 L 540.800059861 20.7311792113 L 616.0 16.0 L 616.0 86.0 L 715.31209673 95.3877571138 L 728.428788751 26.6276495628 L 801.410196625 45.3660902229 L 779.779007019 111.940046364 L 871.329447274 151.557459577 L 905.052204461 90.2159919737 L 968.671151375 130.589803375 L 927.526183715 187.220992981 L 1002.35337253 253.190033858 L 1053.38117645 205.271736443 L 1101.41019662 263.328848625 L 1044.77900702 304.473816285 L 1095.55833781 390.336975471 L 1158.89623148 360.532425061 L 1186.63390978 430.589803375 L 1120.05995364 452.220992981 L 1141.8207917 549.573386211 L 1211.26882079 540.800059861 L 1216.0 616.0 L 1146.0 616.0 Z" style="fill:#808080; stroke:#000000; stroke-width:10"/>
</svg>
