<svg version="1.1" baseProfile="full" width="512" height="512" xmlns="http://www.w3.org/2000/svg">
<path d="M 426 256 L 407.471109112 333.178384956 L 469.841565805 364.957719937 L 425.705627485 425.705627485 L 376.208152802 376.208152802 L 308.532889044 417.67960777 L 330.16407865 484.253563911 L 256.0 496.0 L 256.0 426.0 L 178.821615044 407.471109112 L 147.042280063 469.841565805 L 86.2943725152 425.705627485 L 135.791847198 376.208152802 L 94.3203922298 308.532889044 L 27.7464360892 330.16407865 L 16.0 256.0 L 86.0 256.0 L 104.528890888 178.821615044 L 42.1584341948 147.042280063 L 86.2943725152 86.2943725152 L 135.791847198 135.791847198 L 203.467110956 94.3203922298 L 181.83592135 27.7464360892 L 256.0 16.0 L 256.0 86.0 L 333.178384956 104.528890888 L 364.957719937 42.1584341948 L 425.705627485 86.2943725152 L 376.208152802 135.791847198 L 417.67960777 203.467110956 L 484.253563911 181.83592135 L 496.0 256.0 L 426.0 256.0 Z" style="fill:#808080; stroke:#000000; stroke-width:10"/>
</svg>
